<svg width="25" height="24" viewBox="0 0 25 24" fill="none" xmlns="http://www.w3.org/2000/svg">
<path d="M7.02579 2.625V6.375C7.02579 6.54076 6.95994 6.69973 6.84273 6.81694C6.72552 6.93415 6.56655 7 6.40079 7H2.65079C2.48503 7 2.32606 6.93415 2.20885 6.81694C2.09164 6.69973 2.02579 6.54076 2.02579 6.375V2.625C2.02579 2.45924 2.09164 2.30027 2.20885 2.18306C2.32606 2.06585 2.48503 2 2.65079 2H6.40079C6.56655 2 6.72552 2.06585 6.84273 2.18306C6.95994 2.30027 7.02579 2.45924 7.02579 2.625ZM13.9008 2H10.1508C9.98503 2 9.82606 2.06585 9.70885 2.18306C9.59164 2.30027 9.52579 2.45924 9.52579 2.625V6.375C9.52579 6.54076 9.59164 6.69973 9.70885 6.81694C9.82606 6.93415 9.98503 7 10.1508 7H13.9008C14.0665 7 14.2255 6.93415 14.3427 6.81694C14.4599 6.69973 14.5258 6.54076 14.5258 6.375V2.625C14.5258 2.45924 14.4599 2.30027 14.3427 2.18306C14.2255 2.06585 14.0665 2 13.9008 2ZM21.4008 2H17.6508C17.5687 2 17.4874 2.01617 17.4116 2.04758C17.3358 2.07898 17.2669 2.12502 17.2088 2.18306C17.1508 2.24109 17.1048 2.30999 17.0734 2.38582C17.042 2.46165 17.0258 2.54292 17.0258 2.625V6.375C17.0258 6.45708 17.042 6.53835 17.0734 6.61418C17.1048 6.69001 17.1508 6.7589 17.2088 6.81694C17.2669 6.87498 17.3358 6.92102 17.4116 6.95243C17.4874 6.98383 17.5687 7 17.6508 7H21.4008C21.5665 7 21.7255 6.93415 21.8427 6.81694C21.9599 6.69973 22.0258 6.54076 22.0258 6.375V2.625C22.0258 2.45924 21.9599 2.30027 21.8427 2.18306C21.7255 2.06585 21.5665 2 21.4008 2ZM6.40079 9.5H2.65079C2.48503 9.5 2.32606 9.56585 2.20885 9.68306C2.09164 9.80027 2.02579 9.95924 2.02579 10.125V13.875C2.02579 14.0408 2.09164 14.1997 2.20885 14.3169C2.32606 14.4342 2.48503 14.5 2.65079 14.5H6.40079C6.56655 14.5 6.72552 14.4342 6.84273 14.3169C6.95994 14.1997 7.02579 14.0408 7.02579 13.875V10.125C7.02579 9.95924 6.95994 9.80027 6.84273 9.68306C6.72552 9.56585 6.56655 9.5 6.40079 9.5ZM13.9008 9.5H10.1508C9.98503 9.5 9.82606 9.56585 9.70885 9.68306C9.59164 9.80027 9.52579 9.95924 9.52579 10.125V13.875C9.52579 14.0408 9.59164 14.1997 9.70885 14.3169C9.82606 14.4342 9.98503 14.5 10.1508 14.5H13.9008C14.0665 14.5 14.2255 14.4342 14.3427 14.3169C14.4599 14.1997 14.5258 14.0408 14.5258 13.875V10.125C14.5258 9.95924 14.4599 9.80027 14.3427 9.68306C14.2255 9.56585 14.0665 9.5 13.9008 9.5ZM21.4008 9.5H17.6508C17.5687 9.5 17.4874 9.51617 17.4116 9.54758C17.3358 9.57898 17.2669 9.62502 17.2088 9.68306C17.1508 9.7411 17.1048 9.81 17.0734 9.88582C17.042 9.96165 17.0258 10.0429 17.0258 10.125V13.875C17.0258 13.9571 17.042 14.0383 17.0734 14.1142C17.1048 14.19 17.1508 14.2589 17.2088 14.3169C17.2669 14.375 17.3358 14.421 17.4116 14.4524C17.4874 14.4838 17.5687 14.5 17.6508 14.5H21.4008C21.5665 14.5 21.7255 14.4342 21.8427 14.3169C21.9599 14.1997 22.0258 14.0408 22.0258 13.875V10.125C22.0258 9.95924 21.9599 9.80027 21.8427 9.68306C21.7255 9.56585 21.5665 9.5 21.4008 9.5ZM6.40079 17H2.65079C2.56871 17 2.48744 17.0162 2.41161 17.0476C2.33578 17.079 2.26688 17.125 2.20885 17.1831C2.15081 17.2411 2.10477 17.31 2.07336 17.3858C2.04195 17.4617 2.02579 17.5429 2.02579 17.625V21.375C2.02579 21.5408 2.09164 21.6997 2.20885 21.8169C2.32606 21.9342 2.48503 22 2.65079 22H6.40079C6.56655 22 6.72552 21.9342 6.84273 21.8169C6.95994 21.6997 7.02579 21.5408 7.02579 21.375V17.625C7.02579 17.5429 7.00962 17.4617 6.97821 17.3858C6.9468 17.31 6.90077 17.2411 6.84273 17.1831C6.78469 17.125 6.71579 17.079 6.63996 17.0476C6.56414 17.0162 6.48286 17 6.40079 17ZM13.9008 17H10.1508C10.0687 17 9.98744 17.0162 9.91161 17.0476C9.83578 17.079 9.76688 17.125 9.70885 17.1831C9.65081 17.2411 9.60477 17.31 9.57336 17.3858C9.54195 17.4617 9.52579 17.5429 9.52579 17.625V21.375C9.52579 21.5408 9.59164 21.6997 9.70885 21.8169C9.82606 21.9342 9.98503 22 10.1508 22H13.9008C14.0665 22 14.2255 21.9342 14.3427 21.8169C14.4599 21.6997 14.5258 21.5408 14.5258 21.375V17.625C14.5258 17.5429 14.5096 17.4617 14.4782 17.3858C14.4468 17.31 14.4008 17.2411 14.3427 17.1831C14.2847 17.125 14.2158 17.079 14.14 17.0476C14.0641 17.0162 13.9829 17 13.9008 17ZM21.4008 17H17.6508C17.5687 17 17.4874 17.0162 17.4116 17.0476C17.3358 17.079 17.2669 17.125 17.2088 17.1831C17.1508 17.2411 17.1048 17.31 17.0734 17.3858C17.042 17.4617 17.0258 17.5429 17.0258 17.625V21.375C17.0258 21.4571 17.042 21.5383 17.0734 21.6142C17.1048 21.69 17.1508 21.7589 17.2088 21.8169C17.2669 21.875 17.3358 21.921 17.4116 21.9524C17.4874 21.9838 17.5687 22 17.6508 22H21.4008C21.5665 22 21.7255 21.9342 21.8427 21.8169C21.9599 21.6997 22.0258 21.5408 22.0258 21.375V17.625C22.0258 17.5429 22.0096 17.4617 21.9782 17.3858C21.9468 17.31 21.9008 17.2411 21.8427 17.1831C21.7847 17.125 21.7158 17.079 21.64 17.0476C21.5641 17.0162 21.4829 17 21.4008 17Z" fill="currentColor"/>
</svg>
